# xmcd
#
# Track frame offsets:
#	150
#	13932
#	29958
#	47857
#	64445
#	82512
#	100495
#	116902
#	132830
#	149034
#	163250
#	178299
#	191892
#	208147
#	223440
#	240547
#	260280
#	278833
#	291174
#	310339
#	321820
#	330023
#
# Disc length: 4694 seconds
#
# Revision: 0
# Processed by: cddbd v1.5.2PL0 Copyright (c) Steve Scherf et al.
# Submitted via: audiograbber 1.83.01
#
DISCID=69125416
DTITLE=Various Artist - ERG NCT 174
DYEAR=2008
DGENRE=Country
TTITLE0=Kenny Chesney ft Mac McAnally - Down The Road
TTITLE1=Emerson Drive - Belongs To You
TTITLE2=Doc Walker - One Last Sundown
TTITLE3=Darius Rucker - It Won't Be Like This For Long
TTITLE4=Martina McBride - Ride
TTITLE5=Aaron Pritchett - How Do I Get There
TTITLE6=Toby Keith - God Love Her
TTITLE7=Bucky Covington - I'll Walk
TTITLE8=Blake Shelton - She Wouldn't Be Gone
TTITLE9=Alex J. Robinson - Don't Waste My Time
TTITLE10=Gary Allan - She's So California
TTITLE11=Joey and Rory - Cheater Cheater
TTITLE12=Crystal Shawanda - My Roots Are Showing
TTITLE13=Heidi Newfield - Cry Cry ('Till the Sun Shines)
TTITLE14=John Michael Montgomery - Forever
TTITLE15=Beverley Mahood - Rewrite History
TTITLE16=Keith Anderson - Somebody Needs A Hug
TTITLE17=The Lost Trailers - How Bout You Don't
TTITLE18=Carrie Underwood - Do You Hear What I Hear
TTITLE19=Elvis Presley with Martina McBride - Blue Christmas
TTITLE20=George Strait - We Wish You A Merry Christmas
TTITLE21=Faith Hill - A Baby Changes Everything
EXTD=
EXTT0=
EXTT1=
EXTT2=
EXTT3=
EXTT4=
EXTT5=
EXTT6=
EXTT7=
EXTT8=
EXTT9=
EXTT10=
EXTT11=
EXTT12=
EXTT13=
EXTT14=
EXTT15=
EXTT16=
EXTT17=
EXTT18=
EXTT19=
EXTT20=
EXTT21=
PLAYORDER=
